Coordinates
version=1
nRows=17
nColumns=40
inDegrees=yes

Units are S.I. units (second, meters, Newtons, ...)
Angles are in degrees.

endheader
time	pelvis_tilt	pelvis_list	pelvis_rotation	pelvis_tx	pelvis_ty	pelvis_tz	hip_flexion_r	hip_adduction_r	hip_rotation_r	knee_angle_r	knee_angle_r_beta	ankle_angle_r	subtalar_angle_r	mtp_angle_r	hip_flexion_l	hip_adduction_l	hip_rotation_l	knee_angle_l	knee_angle_l_beta	ankle_angle_l	subtalar_angle_l	mtp_angle_l	lumbar_extension	lumbar_bending	lumbar_rotation	arm_flex_r	arm_add_r	arm_rot_r	elbow_flex_r	pro_sup_r	wrist_flex_r	wrist_dev_r	arm_flex_l	arm_add_l	arm_rot_l	elbow_flex_l	pro_sup_l	wrist_flex_l	wrist_dev_l
      0.00000000	    -13.98509589	      0.85440697	     -7.89253807	     -1.89127925	      0.81001204	      0.22092743	     10.00199690	      4.62084990	     -5.49939756	    -45.28289007	     -0.79033553	     11.75638793	     -7.52850172	    -14.56715980	     49.46225854	      4.36006430	      0.61768162	    -83.47758998	     -1.45695880	      6.54641237	     14.06013909	    -14.39130069	     -5.23695042	     -0.18349869	      6.23513169	     -1.54107762	    -18.43394416	      9.86948040	     96.39089704	     89.95437384	      0.00000000	      0.00000000	    -23.69853473	     27.70200765	    -16.79114836	     80.57521823	     89.95437384	      0.00000000	      0.00000000
      0.01000000	    -13.90119930	      1.92790160	     -7.79298281	     -1.85604139	      0.81553272	      0.22074402	      6.67789488	      2.72289923	     -5.89083028	    -42.49408401	     -0.74166168	      7.66924486	     -6.61954079	    -13.86177758	     51.28843710	      3.28269715	      0.44812575	    -79.26052746	     -1.38335717	      5.91609988	     13.30604829	    -14.35675266	     -4.75279408	     -1.43634964	      7.27238380	     -2.00343695	    -18.46789040	      9.66885074	    100.69893391	     89.95437384	      0.00000000	      0.00000000	    -26.26720982	     29.20785538	    -16.37255551	     82.74904453	     89.95437384	      0.00000000	      0.00000000
      0.02000000	    -13.89033207	      2.99774770	     -7.62312488	     -1.82019429	      0.82134125	      0.22058409	      3.49677234	      0.81980359	     -6.59459777	    -39.46497040	     -0.68879367	      2.56747746	     -5.67969196	    -12.77331952	     52.56526640	      2.29430635	      0.60279008	    -74.24727619	     -1.29585943	      5.38459498	     11.94242954	    -14.44342598	     -4.12391006	     -2.69306694	      8.18489993	     -2.53229542	    -18.45794279	      9.55793762	    104.62241464	     89.95437384	      0.00000000	      0.00000000	    -28.89675540	     30.59144668	    -15.74015309	     84.94751135	     89.95437384	      0.00000000	      0.00000000
      0.03000000	    -14.12367918	      4.09461293	     -7.57068547	     -1.78404985	      0.82691375	      0.22053286	      0.73168979	     -1.07641818	     -7.34671664	    -36.41731963	     -0.63560213	     -3.34126243	     -4.80607147	    -11.49347413	     53.55121115	      1.38332291	      0.98802863	    -68.49124981	     -1.19539782	      4.39674809	     11.27581213	    -14.21676962	     -3.17537528	     -3.94346218	      9.14363270	     -3.09530123	    -18.46819835	      9.68230135	    108.22659832	     89.95437384	      0.00000000	      0.00000000	    -31.65252663	     31.72006079	    -14.79235768	     87.12728150	     89.95437384	      0.00000000	      0.00000000
      0.04000000	    -13.93850122	      4.99094243	     -7.38715960	     -1.74669690	      0.83306895	      0.22066862	     -2.55389601	     -2.68639739	     -8.38099765	    -33.10561608	     -0.57780200	     -8.66246483	     -2.56761859	      6.04175109	     53.44930086	      0.63271785	      1.62962466	    -62.24350840	     -1.08635416	      3.71792774	     10.60053722	    -11.44992312	     -2.65820365	     -5.06491573	      9.79161842	     -3.60510227	    -18.35852236	      9.99415029	    111.37441098	     89.95437384	      0.00000000	      0.00000000	    -34.53671249	     32.63572517	    -13.53205408	     89.31507056	     89.95437384	      0.00000000	      0.00000000
      0.05000000	    -13.94646625	      5.95298926	     -7.34009615	     -1.70913759	      0.83848228	      0.22083171	     -5.48774362	     -4.39554925	     -9.80099398	    -29.41428198	     -0.51337607	    -17.21074140	     -2.59761131	      8.21454471	     53.24812297	     -0.10095462	      2.52317538	    -55.57021697	     -0.96988325	      1.54063756	     11.26955378	    -10.39629855	     -1.82726432	     -6.20052787	     10.50068688	     -4.16819140	    -18.20142003	     10.41597685	    114.11174734	     89.95437384	      0.00000000	      0.00000000	    -37.52925212	     33.28835604	    -12.01640742	     91.46531392	     89.95437384	      0.00000000	      0.00000000
      0.06000000	    -14.12170298	      6.49106950	     -7.29983896	     -1.67180945	      0.84335020	      0.22131637	     -8.05501735	     -5.33161972	    -10.29936122	    -26.07383228	     -0.45507422	    -23.41636556	     -1.66621541	     19.68896504	     53.09759898	     -0.35880322	      3.20015013	    -48.56700103	     -0.84765408	     -2.58464257	     11.99711273	    -10.56658125	     -0.92027098	     -6.88812595	     10.97890227	     -4.52150075	    -18.14484654	     11.20907627	    116.28706174	     89.95437384	      0.00000000	      0.00000000	    -40.67673769	     33.48262710	    -10.04769779	     93.58142189	     89.95437384	      0.00000000	      0.00000000
      0.07000000	    -14.05546147	      6.87399514	     -7.54657893	     -1.63381696	      0.84758142	      0.22226463	    -10.70997632	     -6.05023225	    -10.09074103	    -22.93398729	     -0.40027359	    -29.47770937	     -1.92282543	     20.78378703	     51.95126920	     -0.35104954	      4.64366018	    -41.91241609	     -0.73150966	     -4.66479207	     12.41138678	     -8.87715305	     -0.19305806	     -7.41622771	     11.61896596	     -4.87435073	    -18.12903531	     12.08640170	    117.87455197	     89.95437384	      0.00000000	      0.00000000	    -43.78026166	     33.42430012	     -8.04856503	     95.63136127	     89.95437384	      0.00000000	      0.00000000
      0.08000000	    -13.99921070	      6.88791028	     -7.70346464	     -1.59611239	      0.85077697	      0.22302905	    -12.84536756	     -6.22789830	     -9.34018050	    -21.07371240	     -0.36780567	    -33.67339396	     -3.02045894	     21.69808075	     51.12130401	      0.02739398	      6.38500018	    -35.99479877	     -0.62822775	     -7.00603051	     11.97803634	     -6.96933360	      0.48453423	     -7.53068985	     11.76381454	     -4.81594604	    -18.31384418	     13.36357062	    118.68588343	     89.95437384	      0.00000000	      0.00000000	    -46.90159478	     32.91120967	     -5.79264231	     97.60663037	     89.95437384	      0.00000000	      0.00000000
      0.09000000	    -14.02195848	      6.80912007	     -7.76362135	     -1.55909886	      0.85279362	      0.22323947	    -14.10593866	     -6.21488198	     -8.35586070	    -20.62991539	     -0.36005995	    -35.86522012	     -5.65238547	     22.47654829	     50.33892439	      0.25679388	      8.27418432	    -30.74381924	     -0.53658087	     -8.72159337	     11.02789136	     -5.09396920	      1.10908154	     -7.52207659	     11.73320905	     -4.77024375	    -18.56456490	     14.56172587	    118.98859291	     89.95437384	      0.00000000	      0.00000000	    -49.65029295	     32.22746209	     -3.61080753	     99.50316351	     89.95437384	      0.00000000	      0.00000000
      0.10000000	    -13.98578615	      6.50261932	     -7.84305012	     -1.52241229	      0.85369227	      0.22322953	    -14.63083741	     -5.92209518	     -6.74924233	    -22.05685802	     -0.38496480	    -35.86925993	     -8.34251694	     23.82250255	     49.71720764	      0.73900921	     11.19789139	    -27.54532158	     -0.48075656	     -6.21961273	      6.65555035	     16.07710736	      1.60745386	     -7.24674155	     11.44362085	     -4.55463274	    -18.91707647	     16.03511807	    118.62536214	     89.95437384	      0.00000000	      0.00000000	    -51.93592375	     31.28228763	     -1.80200848	    101.13445295	     89.95437384	      0.00000000	      0.00000000
      0.11000000	    -14.00484235	      6.41923589	     -7.52902460	     -1.48683211	      0.85340062	      0.22237154	    -14.41327376	     -5.64371770	     -5.22031894	    -25.16182307	     -0.43915666	    -33.76061947	    -10.81699087	     23.71219619	     49.48168400	      0.77219265	     14.30918134	    -25.28448050	     -0.44129743	     -7.65613889	      6.07724258	     16.23274074	      1.97337111	     -7.23391549	     10.64988791	     -4.38838733	    -19.12814726	     17.27627043	    117.58075898	     89.95437384	      0.00000000	      0.00000000	    -53.43588453	     30.56565173	     -0.68390817	    102.38266872	     89.95437384	      0.00000000	      0.00000000
      0.12000000	    -14.08686160	      6.02846728	     -7.34634129	     -1.45162310	      0.85180367	      0.22217484	    -13.74795576	     -4.67277979	     -2.97323327	    -28.92828372	     -0.50489380	    -31.92285067	    -14.01112904	     23.92453396	     49.53841638	      1.54085056	     18.60029702	    -25.26280615	     -0.44091915	     -8.12261741	      4.13497450	     15.59393201	      2.38862974	     -6.89875305	      9.78472638	     -4.29404224	    -19.16887288	     18.44337482	    115.63614030	     89.95437384	      0.00000000	      0.00000000	    -54.32039430	     29.91431174	     -0.10883141	    103.26641641	     89.95437384	      0.00000000	      0.00000000
      0.13000000	    -13.36495780	      5.52001624	     -6.52977693	     -1.41642095	      0.85114817	      0.22071557	    -13.41078356	     -3.82934655	     -2.26378489	    -33.44073485	     -0.58365093	    -31.07127233	    -15.11458080	     23.80081321	     48.55154085	      1.31871287	     20.50765699	    -26.00206119	     -0.45382158	     -8.34335349	      4.08114198	     15.46753901	      1.62897416	     -6.48096836	      8.37126066	     -4.40350568	    -19.05643063	     19.12194295	    113.01278845	     89.95437384	      0.00000000	      0.00000000	    -53.63012181	     29.86343102	     -0.87871615	    103.42294915	     89.95437384	      0.00000000	      0.00000000
      0.14000000	    -13.44882768	      5.20962506	     -6.10283206	     -1.38213253	      0.84863974	      0.22037923	    -11.36031783	     -2.95061776	     -0.96683308	    -39.20439565	     -0.68424579	    -29.99263952	    -16.17162775	     23.75230782	     48.47221051	      1.68164088	     22.72267213	    -28.01290839	     -0.48891748	     -9.06473346	      2.51031700	     14.97344825	      1.84407016	     -6.23090800	      7.32069478	     -4.84192203	    -18.56949113	     19.47486071	    109.44919087	     89.95437384	      0.00000000	      0.00000000	    -52.35829511	     29.93151578	     -2.07592678	    103.01555389	     89.95437384	      0.00000000	      0.00000000
      0.15000000	    -12.27561907	      4.82133896	     -5.15289131	     -1.34773527	      0.84773973	      0.21937868	    -10.55866623	     -2.18507515	     -0.91549809	    -44.65473141	     -0.77937209	    -30.54327672	    -16.46572604	     23.64011972	     46.75516325	      1.06603836	     22.50156672	    -30.20261877	     -0.52713514	     -8.08140677	      1.17987079	     14.45018535	      0.38452289	     -6.04042354	      5.71322012	     -5.05936608	    -18.00569736	     19.64991230	    105.20296029	     89.95437384	      0.00000000	      0.00000000	    -49.87453040	     30.35804522	     -3.90426608	    102.17009400	     89.95437384	      0.00000000	      0.00000000
      0.16000000	    -12.05921660	      4.39757282	     -4.63379534	     -1.31401975	      0.84458655	      0.21974033	     -8.04575315	     -1.28290352	     -0.51878685	    -50.96850169	     -0.88956817	    -30.07669607	    -16.90889194	     22.88209978	     46.29695658	      1.48062106	     22.95714820	    -34.44829471	     -0.60123616	     -3.67814321	      0.52008627	     12.36586009	      0.08970472	     -5.73221817	      4.94699950	     -5.90624292	    -17.03426512	     19.02347223	    100.44429724	     89.95437384	      0.00000000	      0.00000000	    -46.67560175	     31.26666634	     -6.35151218	    100.98503477	     89.95437384	      0.00000000	      0.00000000
